<svg width="1660" height="822" xmlns="http://www.w3.org/2000/svg">
    <!-- Created with Method Draw - http://github.com/duopixel/Method-Draw/ -->
    <g>
        <path
            d="m357.5,493.450012c0,0 0,-3 0,-13c0,-12 0,-19 0,-31c0,-9 0,-23 0,-35c0,-20 5.822418,-46.320892 11,-63c5.725739,-18.444946 10.143616,-30.462006 18,-44c7.238892,-12.473907 22,-31 34,-43c12,-12.000015 25.470825,-22.471588 39,-35.000015c12.451691,-11.53064 24.234467,-20.695557 36,-30c6.126099,-4.844666 17.334351,-12.096451 25,-16c8.453857,-4.304916 14.047852,-5.849304 30,-11c12.03717,-3.886627 26.238403,-7.61026 36,-10c10.461426,-2.56105 20.040894,-5.786911 31,-8c9.037109,-1.824966 17.896973,-4.538727 27,-6c9.922852,-1.59288 21.015564,-1.801575 35,-3c10.013184,-0.858093 26,-2 38,-2c17,0 35,0 47,0c14,0 26.017944,1.903595 37,4c5.008606,0.9561 9,2 12,3c3,1 7,3 9,4c2,1 3,2 3,2l0,0l-2,-2l-2,-2"
            id="svg_16" stroke-width="25.5" stroke="#000" fill="none" />
    </g>
</svg>