<svg id="svg" version="1.1" width="692" height="514" xmlns="http://www.w3.org/2000/svg">
    <path
        d="M106.411 44.997 C 101.339 45.734,83.381 54.851,76.000 60.436 C 72.975 62.725,69.702 64.903,68.727 65.276 C 66.201 66.243,65.469 68.897,67.239 70.668 C 68.589 72.017,69.114 71.996,72.126 70.472 C 73.982 69.533,77.794 67.015,80.598 64.878 C 83.401 62.741,90.151 58.711,95.598 55.922 L 105.500 50.853 117.500 51.354 C 132.096 51.963,139.565 52.733,143.399 54.024 C 144.994 54.561,147.642 55.000,149.283 55.000 C 150.925 55.000,153.895 55.419,155.884 55.932 C 165.069 58.298,177.118 60.973,183.500 62.062 C 187.350 62.719,193.650 64.351,197.500 65.689 C 207.068 69.012,226.608 72.174,254.500 74.914 C 264.867 75.932,271.497 76.945,282.000 79.115 C 284.475 79.626,293.700 80.487,302.500 81.027 C 323.557 82.319,334.186 83.507,341.500 85.387 C 344.800 86.235,349.153 86.945,351.174 86.964 C 353.194 86.984,357.019 87.423,359.674 87.939 C 362.328 88.456,367.650 89.383,371.500 89.999 C 375.350 90.616,380.525 91.516,383.000 92.000 C 385.475 92.484,390.425 93.361,394.000 93.948 C 397.575 94.536,404.325 95.646,409.000 96.416 C 421.257 98.433,442.811 104.658,449.379 108.078 C 451.646 109.258,458.581 114.110,464.792 118.862 C 471.002 123.613,478.314 128.850,481.041 130.500 C 483.768 132.150,486.246 134.406,486.548 135.513 C 486.851 136.620,486.361 140.220,485.461 143.513 C 482.605 153.954,481.002 163.310,481.008 169.500 C 481.014 176.268,479.348 189.973,477.969 194.500 C 477.467 196.150,476.120 206.725,474.976 218.000 C 473.833 229.275,472.511 240.300,472.039 242.500 C 470.231 250.926,467.307 270.728,463.990 297.000 C 461.561 316.245,460.626 321.783,458.857 327.415 C 457.836 330.668,457.000 334.268,456.999 335.415 C 456.998 338.248,454.308 350.945,452.476 356.761 C 449.881 365.003,449.218 367.361,447.911 373.000 C 447.209 376.025,446.267 378.927,445.817 379.450 C 445.368 379.972,445.000 381.408,445.000 382.641 C 445.000 383.874,444.550 385.160,444.000 385.500 C 443.450 385.840,443.000 386.998,443.000 388.073 C 443.000 389.148,442.585 390.809,442.078 391.764 C 439.625 396.381,434.956 410.198,433.889 416.000 C 432.322 424.516,425.272 443.893,422.710 446.726 L 420.697 448.951 250.157 448.968 C 156.360 448.977,76.216 449.255,72.059 449.584 C 61.184 450.445,60.517 449.771,60.440 437.828 C 60.407 432.698,59.804 418.375,59.100 406.000 C 57.655 380.607,57.576 331.334,58.962 320.000 C 59.467 315.875,60.153 298.550,60.488 281.500 C 61.084 251.087,63.507 202.607,64.511 200.982 C 65.291 199.721,66.291 80.364,65.555 76.441 C 65.089 73.957,64.382 73.000,63.014 73.000 C 61.971 73.000,60.866 73.408,60.558 73.906 C 60.250 74.405,59.772 102.575,59.497 136.506 C 59.221 170.437,58.766 198.569,58.487 199.022 C 58.207 199.474,57.259 211.242,56.381 225.172 C 54.928 248.202,54.520 259.285,53.587 301.000 C 53.421 308.425,52.746 327.775,52.088 344.000 C 51.430 360.225,51.163 377.100,51.496 381.500 C 52.509 394.896,54.221 429.913,54.365 440.166 C 54.486 448.797,54.748 450.096,56.821 452.305 C 60.296 456.010,66.920 457.555,73.308 456.151 C 76.932 455.354,98.587 455.035,145.000 455.092 C 181.575 455.138,259.164 455.136,317.421 455.088 C 415.834 455.007,423.476 454.879,425.230 453.292 C 426.736 451.929,427.458 451.822,428.809 452.764 C 433.604 456.111,443.414 459.570,457.782 462.981 C 466.771 465.115,468.970 465.189,527.500 465.342 L 587.936 465.500 601.218 472.289 C 609.304 476.421,615.674 479.053,617.500 479.016 C 620.814 478.949,624.168 476.668,625.883 473.316 C 627.268 470.608,627.313 451.938,625.957 442.557 C 625.405 438.739,624.519 426.139,623.988 414.557 C 623.457 402.976,622.789 392.600,622.504 391.500 C 621.914 389.227,620.587 378.528,618.502 359.249 C 617.714 351.960,616.577 345.079,615.977 343.957 C 615.376 342.835,614.442 336.423,613.901 329.708 C 613.047 319.116,612.492 316.640,609.708 311.003 C 604.738 300.938,609.447 301.549,534.204 301.215 L 469.909 300.930 470.501 294.715 C 470.827 291.297,471.496 285.800,471.987 282.500 C 472.479 279.200,473.386 272.900,474.004 268.500 C 475.863 255.254,477.109 247.690,478.041 244.000 C 478.527 242.075,479.434 235.100,480.057 228.500 C 481.278 215.561,483.086 201.803,485.445 187.500 C 486.261 182.550,486.946 175.350,486.966 171.500 C 487.003 164.409,488.522 155.251,491.412 144.701 C 493.307 137.781,493.395 133.103,491.673 130.838 C 490.977 129.925,487.638 127.553,484.251 125.568 C 480.863 123.582,477.817 121.514,477.481 120.970 C 477.145 120.426,472.614 116.810,467.412 112.934 C 457.710 105.706,447.432 99.735,443.000 98.753 C 441.625 98.449,435.100 96.628,428.500 94.708 C 421.900 92.788,412.675 90.683,408.000 90.031 C 403.325 89.379,397.925 88.452,396.000 87.972 C 394.075 87.491,390.700 86.877,388.500 86.608 C 386.300 86.338,381.800 85.615,378.500 85.000 C 371.452 83.688,362.259 82.270,352.500 80.990 C 348.650 80.485,343.475 79.588,341.000 78.997 C 334.338 77.407,321.499 76.043,303.500 75.014 C 294.700 74.511,283.225 73.196,278.000 72.092 C 272.775 70.989,265.125 69.824,261.000 69.503 C 239.103 67.803,203.946 62.266,200.500 59.975 C 199.360 59.218,193.257 57.699,184.500 55.994 C 181.200 55.352,175.125 54.018,171.000 53.029 C 166.875 52.041,160.350 50.705,156.500 50.060 C 152.650 49.415,147.475 48.477,145.000 47.976 C 132.775 45.502,113.292 43.998,106.411 44.997 M596.880 308.068 C 604.460 309.693,606.290 313.620,607.926 331.761 C 608.485 337.955,609.418 343.913,610.000 345.000 C 610.582 346.088,611.739 353.171,612.570 360.739 C 613.402 368.308,614.499 377.650,615.008 381.500 C 616.108 389.821,617.738 411.845,617.673 417.500 C 617.647 419.700,618.272 427.575,619.060 435.000 C 619.848 442.425,620.495 453.625,620.496 459.888 C 620.501 475.325,620.629 475.265,604.768 467.327 C 598.021 463.951,591.224 460.688,589.665 460.077 C 587.689 459.302,568.535 458.988,526.456 459.040 C 492.922 459.081,465.285 458.717,464.291 458.222 C 463.306 457.731,459.800 456.772,456.500 456.090 C 444.830 453.679,432.958 449.359,431.494 446.990 C 430.883 446.001,433.770 436.596,436.638 430.232 C 437.448 428.435,438.503 424.556,438.982 421.613 C 440.287 413.591,441.796 408.553,446.196 397.514 C 450.759 386.069,452.186 381.742,453.951 374.000 C 454.640 370.975,455.877 366.475,456.699 364.000 C 458.891 357.401,460.606 350.410,461.972 342.500 C 462.637 338.650,463.996 332.575,464.991 329.000 C 465.987 325.425,467.359 319.012,468.042 314.750 L 469.283 307.000 530.592 307.000 C 570.282 307.000,593.657 307.377,596.880 308.068 "
        stroke="none" fill="black" fill-rule="evenodd" />
</svg>