<svg width="800" height="600" xmlns="http://www.w3.org/2000/svg">

    <g>
        <title>Layer 1</title>
        <path id="svg_4" d="m217,426" opacity="NaN" stroke="#000" fill="#fff" />
        <path
            d="m301,440c0,0 -4,0 -13,0c-14,0 -37,0 -46,0c-9,0 -15,0 -19,0c0,0 -3,0 -3,0c0,0 -1,0 -1,-1c0,0 0,-2 0,-2c0,-1 0,-5 0,-21c0,-19 0,-32 0,-58c0,-15 0,-27 0,-33c0,-5 -0.49924,-8.95847 -1,-18c-0.6636,-11.98163 -0.57179,-27.94244 -2,-45c-1.67081,-19.95515 -1.11316,-30.04379 -2,-39c-0.50244,-5.0742 -1,-6 -1,-7c0,0 0,0 0,-1c0,0 -1,0 -1,0c0,0 0,0 0,0c0,-9 -0.66493,-27.01382 0,-43c0.50043,-12.03119 0.58578,-19.58578 2,-21c0.70711,-0.70711 1,0 1,0c0,0 0,0 1,0c0,0 0,0 1,1c0,0 1,0 1,0c1,1 1,1 3,1c4,0 13.12996,1.08852 26,-1c16.27945,-2.6418 35.98221,-9.09041 51,-12c15.98163,-3.09633 33.72897,-7.03618 51,-11c17.78589,-4.08199 34.90936,-7.38176 51,-11c9.94958,-2.23733 21.92657,-5.32083 30,-7c5.95532,-1.23863 10.94672,-1.49874 18,-2c8.97736,-0.638 22,-1 32,-1c8,0 13,0 15,0c2,0 2,0 3,0c0,0 3,0 9,0c5,0 9,0 11,0c4,0 9,0 13,0c4,0 6,0 7,0c1,0 1,0 2,0c0,0 0,0 0,1c0,0 0,1 0,1c1,2 0.63342,5.02248 1,8c0.50378,4.09222 2.1391,8.97418 3,14c1.19385,6.96956 0.26691,13.04495 1,19c0.50378,4.09221 1,6 1,7c0,1 0.1391,1.97418 1,7c1.19385,6.96956 2.57184,28.03719 4,42c1.53979,15.0542 3.0495,32.99486 5,52c2.05206,19.99472 3.5592,35.03168 5,52c0.76611,9.02292 0.31073,14.08026 1,17c0.51373,2.17624 0.6701,5.01364 1,9c0.50171,6.06204 1,13 1,21c0,5 0,9 0,12c0,3 0,8 0,12c0,3 0,4 0,5c0,1 0,3 0,5c0,2 0,5 0,8c0,3 0,5 0,6c0,2 0,5 0,7c0,3 0,6 0,6c0,1 0,2 0,5c0,3 0,6 0,7c0,1 0,2 -1,2c0,0 0,0 0,0c-1,0 -1,0 -1,0c-1,-1 -2,-1 -3,-1c-2,0 -3.87854,-1.49347 -7,-2c-0.98706,-0.16019 -3,-1 -5,-1c-3,0 -7,0 -12,0c-4,0 -7,0 -9,0c0,0 0,0 -1,0c-2,0 -4.96381,1.11588 -8,2c-3.95868,1.15277 -7,2 -12,2c-3,0 -6.02249,0.63345 -9,1c-4.09222,0.50378 -9.92578,2.49756 -15,3c-2.98541,0.29562 -6,1 -8,1c-2,0 -2.87857,0.49347 -6,1c-2.96127,0.48056 -6.90778,1.49622 -11,2c-2.97751,0.36655 -5,0 -6,0c-4,0 -9,0 -13,0c-4,0 -6,0 -11,0c-1,0 -2,0 -3,0c-1,0 -2,0 -3,0c-1,0 -2,0 -3,0c0,0 -1,0 -1,0c0,0 0,0 -1,0c0,0 0,0 0,0c-2,0 -4,0 -7,0c-1,0 -2,0 -4,0c-1,0 -4.03873,-0.48056 -7,0c-3.12143,0.50653 -6,1 -7,2c0,0 -1,0 -1,0c0,0 0,0 -1,0c0,0 0,0 0,0c-1,0 -1,0 -1,0c0,0 0.70709,-0.29291 0,-1c-0.70709,-0.70709 -1,0 -2,0l-2,0"
            id="svg_5" stroke="#000" fill="none" />
        <rect id="svg_8" height="82" width="95" y="207" x="407" stroke="#fff" fill="#000" />
    </g>
</svg>